OpenSim_Sub07_EMGStiffKnee_GRF.mot
version=1
nRows=53
nColumns=19
inDegrees=no
endheader
time	lFx	lFy	lFz	lCOPx	lCOPy	lCOPz	rFx	rFy	rFz	rCOPx	rCOPy	rCOPz	lMx	lMy	lMz	rMx	rMy	rMz
0	-0.16437820	424.05477575	18.35722687	0.59296338	0	-0.61711591	2.28581563	330.56014963	-11.16886091	0.60155110	0	-0.41239234	0	1.79933920	0	0	1.84307424	-0.00000000
0.01000000	-0.21747766	423.26987745	18.30355468	0.59244177	0	-0.61700547	2.33696904	330.93451906	-11.01887387	0.60046708	0	-0.41219024	0	1.83200039	0	0	1.66829100	0.00000000
0.02000000	-0.20401957	422.37486304	18.23517468	0.59205268	0	-0.61690559	2.42316243	331.44247764	-10.96016777	0.59967376	0	-0.41213760	0	1.84663888	0	0	1.57737704	0
0.03000000	-0.14321034	421.54114060	18.17012979	0.59181531	0	-0.61685536	2.51473648	332.07691631	-10.98673962	0.59916702	0	-0.41219037	0	1.84757968	0	0	1.52509858	-0.00000000
0.04000000	-0.08215220	420.79384730	18.10901318	0.59165604	0	-0.61682748	2.60258847	332.82508618	-11.05293615	0.59886659	0	-0.41224306	0	1.85931038	0	0	1.47899695	-0.00000000
0.05000000	-0.04473235	420.04845637	18.03687755	0.59154191	0	-0.61678448	2.67530158	333.58631518	-11.13283148	0.59858880	0	-0.41231450	0	1.86281439	0	0	1.43604037	0.00000000
0.06000000	-0.04316562	419.28608417	17.96241238	0.59139940	0	-0.61671581	2.72603914	334.26031669	-11.20641077	0.59806135	0	-0.41241898	0	1.85929906	0	0	1.41672220	0
0.07000000	-0.07763593	418.56401981	17.87639947	0.59128000	0	-0.61666235	2.76741644	334.91304170	-11.26342183	0.59742116	0	-0.41248917	0	1.85482032	0	0	1.43030817	0
0.08000000	-0.13829882	417.84700482	17.77292297	0.59123766	0	-0.61662433	2.80541309	335.62533766	-11.30290428	0.59686385	0	-0.41247493	0	1.84952702	0	0	1.46678033	-0.00000000
0.09000000	-0.22116249	417.12379248	17.63273754	0.59132112	0	-0.61661522	2.85335416	336.35396220	-11.33143395	0.59640738	0	-0.41242726	0	1.85963642	0	0	1.49824198	0
0.10000000	-0.28109337	416.36085825	17.44985624	0.59143431	0	-0.61660330	2.89894943	337.03538228	-11.38140279	0.59591135	0	-0.41241734	0	1.87584470	0	0	1.51950611	0
0.11000000	-0.30721145	415.56870262	17.26022929	0.59144959	0	-0.61655599	2.94136554	337.71565763	-11.47308005	0.59533345	0	-0.41248306	0	1.88933711	0	0	1.55630248	0
0.12000000	-0.29270871	414.74327764	17.08778288	0.59131947	0	-0.61646799	2.98780322	338.44760726	-11.57794260	0.59469235	0	-0.41256237	0	1.89692607	0	0	1.60696356	0
0.13000000	-0.25269311	413.87275581	16.94174503	0.59108005	0	-0.61635022	3.04232207	339.24169434	-11.67136496	0.59409840	0	-0.41260609	0	1.89155202	0	0	1.65944728	0
0.14000000	-0.20828108	413.00043417	16.79923813	0.59078079	0	-0.61624434	3.09992673	340.09487945	-11.74291375	0.59368472	0	-0.41261166	0	1.87555704	0	0	1.67059899	0
0.15000000	-0.18273222	412.15092705	16.66072170	0.59052993	0	-0.61616865	3.17450562	340.96515434	-11.82235139	0.59340251	0	-0.41262641	0	1.85703952	0	0	1.63963864	0
0.16000000	-0.19187856	411.23386581	16.53298953	0.59042611	0	-0.61610449	3.27872438	341.80280965	-11.91068605	0.59317745	0	-0.41266892	0	1.83962680	0	0	1.60351100	0.00000000
0.17000000	-0.22356102	410.24751194	16.42471048	0.59041060	0	-0.61606291	3.39229423	342.59918979	-12.01166682	0.59296482	0	-0.41273297	0	1.81818698	0	0	1.58768573	0
0.18000000	-0.26808643	409.26623529	16.33327510	0.59028498	0	-0.61603114	3.47396422	343.37057963	-12.12519738	0.59270134	0	-0.41278692	0	1.80039423	0	0	1.59481273	0
0.19000000	-0.31560696	408.34260134	16.25182448	0.59011546	0	-0.61601417	3.52044654	344.18523343	-12.21525935	0.59255309	0	-0.41277401	0	1.79092931	0	0	1.60370265	0
0.20000000	-0.34732219	407.50501728	16.17781188	0.58997756	0	-0.61602641	3.54001952	344.97333096	-12.25732683	0.59251661	0	-0.41272918	0	1.78905943	0	0	1.60858840	0
0.21000000	-0.35463944	406.79960848	16.12585120	0.58992581	0	-0.61604045	3.55535093	345.67816680	-12.28060980	0.59250605	0	-0.41268972	0	1.78474948	0	0	1.61447085	0
0.22000000	-0.34476045	406.18995938	16.08745660	0.58992182	0	-0.61603887	3.56763921	346.30242191	-12.32173060	0.59247008	0	-0.41267161	0	1.77398516	0	0	1.61950941	0.00000000
0.23000000	-0.33653207	405.60474886	16.04325552	0.58995182	0	-0.61601432	3.57946277	346.87834258	-12.39092502	0.59241813	0	-0.41266694	0	1.75911360	0	0	1.61638539	0
0.24000000	-0.33012448	405.04668531	15.97768199	0.58996072	0	-0.61597553	3.59342474	347.43347541	-12.47623137	0.59238797	0	-0.41266749	0	1.75220848	0	0	1.60511830	-0.00000000
0.25000000	-0.32366168	404.55969800	15.88485728	0.58994565	0	-0.61595882	3.60992995	347.97940466	-12.56240761	0.59238264	0	-0.41266456	0	1.75784809	0	0	1.58152334	0
0.26000000	-0.32147404	404.16247415	15.79060866	0.58989734	0	-0.61597552	3.62952921	348.45903646	-12.61436116	0.59235422	0	-0.41267060	0	1.78560193	0	0	1.56263010	0
0.27000000	-0.33630713	403.79620427	15.69979758	0.58984752	0	-0.61599782	3.67198476	348.80134160	-12.63770953	0.59225143	0	-0.41273190	0	1.82463919	0	0	1.57278755	0
0.28000000	-0.34932110	403.41407082	15.61663954	0.58989325	0	-0.61600429	3.73124439	349.02931565	-12.66143608	0.59216925	0	-0.41280403	0	1.85428265	0	0	1.58893926	0
0.29000000	-0.33768707	403.04333800	15.57213438	0.58997526	0	-0.61598890	3.78471411	349.16352356	-12.68312489	0.59204060	0	-0.41284559	0	1.85769826	0	0	1.59632416	-0.00000000
0.30000000	-0.29243519	402.67585709	15.56564191	0.58996967	0	-0.61593720	3.83169571	349.19573404	-12.70491346	0.59178065	0	-0.41286532	0	1.84091085	0	0	1.60195863	-0.00000000
0.31000000	-0.22064833	402.47619819	15.57698565	0.58988711	0	-0.61590089	3.86646234	349.08748450	-12.71381454	0.59141132	0	-0.41288915	0	1.82375511	0	0	1.60956739	0
0.32000000	-0.14838500	402.52093224	15.58590205	0.58974971	0	-0.61589372	3.90103288	348.89668343	-12.69726852	0.59108637	0	-0.41287941	0	1.81778664	0	0	1.61458729	0
0.33000000	-0.09961258	402.72985249	15.58273228	0.58952930	0	-0.61588755	3.93466066	348.63861706	-12.67075291	0.59091870	0	-0.41287768	0	1.82720009	0	0	1.60928391	0.00000000
0.34000000	-0.07856588	403.03757984	15.57090292	0.58923734	0	-0.61585745	3.94964326	348.33550310	-12.64575354	0.59096679	0	-0.41292740	0	1.84547727	0	0	1.59171089	0
0.35000000	-0.06954276	403.43691171	15.54698516	0.58891345	0	-0.61579199	3.96235279	348.01208864	-12.62843933	0.59118591	0	-0.41298922	0	1.86313253	0	0	1.57524872	0.00000000
0.36000000	-0.06379390	404.02333013	15.51412863	0.58857322	0	-0.61574388	3.98474813	347.69255605	-12.60414204	0.59149209	0	-0.41301694	0	1.88238246	0	0	1.57194706	0.00000000
0.37000000	-0.05117643	404.84375183	15.49163877	0.58818732	0	-0.61576390	3.99629399	347.35407459	-12.55586105	0.59175573	0	-0.41300122	0	1.90098838	0	0	1.57874699	-0.00000000
0.38000000	-0.02213836	405.83807803	15.50180058	0.58779103	0	-0.61582986	3.97822262	346.91044273	-12.48453084	0.59185036	0	-0.41298849	0	1.90108874	0	0	1.58256437	-0.00000000
0.39000000	0.01956993	406.90493543	15.55019452	0.58745765	0	-0.61588971	3.93576611	346.21584590	-12.40712614	0.59180309	0	-0.41301599	0	1.89749888	0	0	1.57450516	0
0.40000000	0.06069251	407.92879644	15.60356622	0.58721505	0	-0.61591145	3.89403387	345.19419183	-12.33578192	0.59165816	0	-0.41306307	0	1.91094623	0	0	1.55599588	0
0.41000000	0.09291818	408.86339436	15.62705519	0.58702820	0	-0.61592426	3.87213667	343.89940101	-12.27885390	0.59137427	0	-0.41311672	0	1.94861848	0	0	1.54619818	0.00000000
0.42000000	0.12807940	409.71674587	15.62816510	0.58680884	0	-0.61592929	3.87653121	342.55323904	-12.21713936	0.59102514	0	-0.41313918	0	1.98616331	0	0	1.55237405	-0.00000000
0.43000000	0.18568177	410.54904318	15.61928422	0.58655017	0	-0.61593021	3.92293886	341.37208132	-12.13456790	0.59082126	0	-0.41312309	0	2.01571053	0	0	1.56287326	-0.00000000
0.44000000	0.25199883	411.34957035	15.60170213	0.58633558	0	-0.61595622	3.98438155	340.36277610	-12.04732019	0.59095092	0	-0.41310543	0	2.05465363	0	0	1.57052368	0.00000000
0.45000000	0.29391422	411.99584029	15.59563518	0.58615120	0	-0.61596747	3.98681604	339.46554259	-11.96670255	0.59145169	0	-0.41308944	0	2.10546004	0	0	1.56619883	0
0.46000000	0.31849430	412.46284345	15.62355192	0.58598144	0	-0.61594873	3.90134583	338.61230002	-11.86985781	0.59210268	0	-0.41305786	0	2.14623912	0	0	1.53698094	0
0.47000000	0.34296211	412.88499594	15.67348624	0.58588677	0	-0.61594086	3.75457968	337.76233933	-11.76565739	0.59273019	0	-0.41303060	0	2.17061428	0	0	1.48433832	0.00000000
0.48000000	0.37370137	413.34215890	15.71903773	0.58594843	0	-0.61595986	3.57859271	336.97189339	-11.66298538	0.59330653	0	-0.41304605	0	2.16887044	0	0	1.43051125	0
0.49000000	0.39888983	413.89961540	15.76601950	0.58605953	0	-0.61602009	3.40928770	336.25832679	-11.56589525	0.59364467	0	-0.41313473	0	2.14262236	0	0	1.39745281	0
0.50000000	0.41026375	414.51879576	15.81816972	0.58610014	0	-0.61609582	3.26352068	335.74292310	-11.48016597	0.59378925	0	-0.41321059	0	2.12370618	0	0	1.37982165	0
0.51000000	0.43067458	415.15567182	15.87808409	0.58611763	0	-0.61614478	3.17017905	335.50905735	-11.43211410	0.59384893	0	-0.41325454	0	2.13286761	0	0	1.37193275	0
0.52000000	0.45292425	415.84407427	15.97240188	0.58612570	0	-0.61617941	3.13805900	335.45858012	-11.41991080	0.59383343	0	-0.41332226	0	2.19081007	0	0	1.36694987	0
